<?xml version="1.0" standalone="no"?>
<!DOCTYPE svg PUBLIC "-//W3C//DTD SVG 20010904//EN"
 "http://www.w3.org/TR/2001/REC-SVG-20010904/DTD/svg10.dtd">
<svg version="1.0" xmlns="http://www.w3.org/2000/svg"
 width="1024.000000pt" height="1024.000000pt" viewBox="0 0 1024.000000 1024.000000"
 preserveAspectRatio="xMidYMid meet">

<g transform="translate(0.000000,1024.000000) scale(0.100000,-0.100000)"
fill="#000000" stroke="none">
<path d="M2147 6904 c-414 -75 -771 -402 -891 -817 -37 -128 -46 -195 -46
-347 1 -152 15 -248 55 -365 49 -145 173 -354 204 -347 7 1 9 -2 6 -9 -9 -13
44 -71 58 -62 6 3 7 1 4 -4 -9 -15 94 -110 187 -173 223 -150 499 -219 766
-191 116 12 260 45 336 78 46 19 87 25 78 12 -3 -5 24 -50 61 -99 l66 -89 -12
-40 c-10 -32 -10 -50 0 -83 15 -53 80 -150 94 -141 5 3 7 1 3 -5 -3 -6 43 -79
102 -164 521 -737 492 -699 557 -729 175 -81 377 102 311 281 -11 32 -90 144
-426 605 -64 88 -152 208 -194 267 -88 122 -113 146 -166 154 -27 4 -42 14
-55 36 -9 16 -40 59 -67 95 l-49 66 73 71 c90 87 132 139 190 236 170 283 208
663 97 976 -17 49 -45 116 -61 149 -66 131 -179 282 -201 268 -5 -3 -7 -2 -4
3 8 14 0 24 -68 84 -173 151 -369 246 -592 285 -108 18 -310 18 -416 -1z m413
-263 c153 -35 283 -100 401 -202 31 -27 60 -45 65 -41 5 4 6 3 2 -2 -4 -4 15
-35 42 -67 27 -33 54 -69 60 -80 6 -11 15 -17 19 -14 5 2 8 -1 7 -8 0 -6 18
-51 42 -98 139 -282 121 -630 -45 -883 -240 -364 -697 -507 -1114 -350 -161
61 -321 189 -426 344 -176 260 -196 620 -50 920 22 47 41 90 40 97 0 7 3 11 7
10 4 -1 26 22 49 51 135 170 312 282 516 325 102 22 281 21 385 -2z"/>
<path d="M2257 6380 c-157 -40 -271 -174 -292 -344 l-7 -56 126 0 126 0 0 28
c1 35 28 85 60 110 79 61 207 37 250 -48 25 -50 26 -131 1 -185 -21 -46 -95
-117 -173 -164 -97 -59 -127 -132 -86 -210 29 -57 64 -82 119 -88 79 -8 152
52 165 136 5 29 16 44 58 74 147 107 217 278 182 447 -27 129 -89 211 -202
267 -70 34 -82 37 -182 39 -59 2 -124 -1 -145 -6z m-254 -387 c-7 -2 -19 -2
-25 0 -7 3 -2 5 12 5 14 0 19 -2 13 -5z"/>
<path d="M2322 5310 c-55 -25 -87 -89 -77 -151 10 -60 70 -119 121 -120 66 -2
88 2 117 23 86 61 73 202 -23 250 -45 23 -84 22 -138 -2z"/>
<path d="M5989 5727 c-90 -34 -141 -86 -175 -177 -23 -65 -23 -685 1 -768 33
-112 146 -192 274 -192 95 0 158 25 217 84 83 84 86 100 82 512 -3 331 -4 351
-24 395 -25 53 -92 122 -111 114 -8 -2 -12 -1 -9 4 19 30 -187 53 -255 28z
m172 -196 l29 -29 0 -332 c0 -233 -3 -338 -12 -353 -18 -34 -40 -46 -84 -47
-31 0 -46 6 -65 26 l-24 26 -3 339 -3 340 30 29 c41 41 91 41 132 1z"/>
<path d="M6687 5721 c-101 -41 -155 -106 -177 -215 -33 -160 34 -281 226 -411
141 -95 174 -135 174 -213 0 -86 -83 -137 -159 -97 -32 16 -47 48 -57 117 l-6
46 -47 6 c-57 6 -78 6 -115 -1 l-29 -5 6 -73 c13 -178 122 -285 291 -285 99 0
161 23 221 83 43 44 54 63 70 119 32 121 7 249 -65 332 -43 48 -117 99 -132
90 -6 -4 -8 -3 -4 4 4 6 -18 27 -52 51 -111 75 -147 140 -123 222 21 69 103
91 160 43 24 -20 32 -36 37 -75 l7 -49 93 0 94 0 0 39 c0 110 -66 223 -155
266 -59 28 -195 31 -258 6z"/>
<path d="M8012 5721 c-66 -23 -123 -77 -154 -145 -23 -50 -23 -56 -23 -411 0
-358 0 -360 24 -413 30 -67 98 -127 164 -147 175 -52 342 34 376 195 7 31 11
181 11 380 0 312 -1 332 -21 386 -54 144 -216 211 -377 155z m153 -167 c8 -4
23 -21 33 -38 15 -27 17 -69 20 -301 4 -325 -1 -389 -33 -421 -51 -51 -136
-18 -150 57 -3 19 -5 175 -3 347 l3 314 28 24 c27 23 68 31 102 18z"/>
<path d="M3943 5722 l-73 -3 0 -549 0 -550 105 0 105 0 0 550 c0 303 -3 551
-7 551 -19 4 -64 4 -130 1z"/>
<path d="M4194 5721 c-2 -2 -4 -251 -4 -553 l0 -548 90 0 90 0 1 358 c0 199 4
348 9 337 4 -12 42 -165 85 -340 42 -176 79 -328 82 -338 4 -15 13 -17 50 -15
l46 3 64 260 c36 143 75 305 88 360 l24 100 0 -362 1 -363 95 0 95 0 -2 552
-3 552 -120 -3 c-66 -1 -122 -5 -125 -8 -5 -5 -11 -31 -100 -413 -52 -222 -70
-276 -70 -211 0 19 -4 30 -10 26 -5 -3 -7 0 -4 9 3 8 -19 120 -50 248 -31 128
-62 260 -69 293 l-12 59 -123 1 c-68 0 -125 -2 -128 -4z m643 -503 c-3 -8 -6
-5 -6 6 -1 11 2 17 5 13 3 -3 4 -12 1 -19z m0 -80 c-3 -8 -6 -5 -6 6 -1 11 2
17 5 13 3 -3 4 -12 1 -19z"/>
<path d="M5153 5722 l-43 -3 0 -550 0 -549 105 0 106 0 -1 203 -2 202 83 7
c45 4 96 13 113 19 136 55 193 167 184 361 -4 84 -9 106 -38 164 -35 72 -87
114 -164 135 -38 10 -257 17 -343 11z m306 -196 c12 -11 25 -35 31 -55 15 -53
12 -167 -5 -207 -17 -42 -68 -67 -126 -62 l-39 3 -6 174 -6 173 65 -4 c46 -3
72 -10 86 -22z"/>
<path d="M7185 5724 c-6 -2 -9 -40 -7 -94 l3 -90 90 0 89 0 0 -460 0 -460 100
0 101 0 -1 462 -1 462 90 -3 91 -3 0 95 0 95 -272 0 c-150 0 -277 -2 -283 -4z"/>
<path d="M8544 5721 c-2 -2 -4 -251 -4 -553 l0 -548 100 0 100 0 0 211 0 210
31 -3 c31 -3 32 -4 99 -199 37 -108 70 -201 74 -208 9 -13 196 -16 196 -2 0 5
-29 85 -63 177 -99 263 -103 275 -83 286 9 5 14 13 11 19 -3 5 0 6 8 3 17 -6
70 52 94 104 13 29 17 67 18 168 0 126 -1 133 -30 189 -34 67 -94 118 -158
136 -39 11 -383 20 -393 10z m346 -199 c33 -33 46 -94 37 -176 -10 -101 -45
-136 -137 -136 l-50 0 0 170 0 170 61 0 c53 0 64 -3 89 -28z"/>
</g>
</svg>
